<svg xmlns="http://www.w3.org/2000/svg" viewBox="0 0 300 120" width="300" height="120">
	<style>
		tspan { white-space:pre }
	</style>
	<path id="SCO RE " fill="#4caf50" aria-label="SCO RE"  d="M3.4 87.96L6.12 72.12Q14.92 74.28 22.04 74.28Q25.64 74.28 28.36 74.2Q31.16 74.04 33.32 73.72L33.32 68.92L24.68 68.2Q18.84 67.64 14.92 66.28Q11 64.92 8.6 62.6Q6.28 60.2 5.24 56.92Q4.28 53.56 4.28 49.08Q4.28 42.92 5.56 38.84Q6.84 34.68 9.64 32.2Q12.44 29.64 16.84 28.6Q21.32 27.56 27.72 27.56Q40.44 27.56 50.76 29.96L48.36 45.32Q39.4 43.88 34.04 43.88Q28.68 43.88 24.92 44.36L24.92 49.08L31.8 49.72Q38.12 50.36 42.36 51.88Q46.6 53.32 49.16 55.72Q51.8 58.12 52.84 61.4Q53.96 64.68 53.96 68.92Q53.96 75 52.36 79.16Q50.76 83.32 48.52 85.48Q46.68 87.24 43.96 88.28Q41.24 89.24 38.2 89.72Q35.16 90.2 32.04 90.36Q29 90.44 26.52 90.44Q20.28 90.44 14.52 89.8Q8.76 89.16 3.4 87.96ZM235.56 69L245.96 89L224.84 89L217 71.16L212.84 71.16L212.84 89L193.64 89L193.64 29L223.88 29Q244.52 29 244.52 50.04Q244.52 64.44 235.56 69ZM217.24 44.36L212.84 44.36L212.84 56.36L217.24 56.36Q220.76 56.36 222.28 55.64Q223.88 54.92 223.88 52.36L223.88 48.36Q223.88 45.8 222.28 45.08Q220.76 44.36 217.24 44.36ZM291.08 66.36L291.08 52.44L271.88 52.44L271.88 44.36L292.52 44.36L294.92 29L252.68 29L252.68 89L295.4 89L295.4 73.64L271.88 73.64L271.88 66.36L291.08 66.36Z" />
	<path id="SCO RE " fill="#ffffff" aria-label="SCO RE"  d="M101 71.8L102.44 87.96Q96.28 90.44 87.24 90.44Q78.68 90.44 73.08 88.6Q67.48 86.68 64.2 82.84Q60.92 79 59.56 73.08Q58.28 67.16 58.28 59.08Q58.28 51.24 59.48 45.4Q60.76 39.48 63.96 35.56Q67.16 31.56 72.6 29.56Q78.12 27.56 86.52 27.56Q88.36 27.56 90.6 27.8Q92.92 27.96 95.08 28.28Q97.32 28.6 99.24 29.08Q101.24 29.48 102.44 30.04L99.56 44.76Q93.16 43.4 88.12 43.4Q82.92 43.4 80.92 44.36Q78.92 45.32 78.92 48.2L78.92 73.32Q80.76 73.72 82.6 73.96Q84.52 74.12 86.52 74.12Q94.52 74.12 101 71.8ZM106.28 59.08Q106.28 50.84 107.64 44.92Q109.08 38.92 112.36 35.08Q115.72 31.24 121.16 29.4Q126.6 27.56 134.6 27.56Q142.68 27.56 148.04 29.4Q153.48 31.24 156.76 35.08Q160.12 38.92 161.48 44.92Q162.92 50.84 162.92 59.08Q162.92 66.92 161.64 72.84Q160.36 78.68 157.08 82.6Q153.88 86.52 148.36 88.52Q142.92 90.44 134.6 90.44Q126.28 90.44 120.76 88.52Q115.32 86.52 112.04 82.6Q108.84 78.68 107.56 72.84Q106.28 66.92 106.28 59.08ZM126.92 49.08L126.92 74.04L134.92 74.04Q138.92 74.04 140.6 73.16Q142.36 72.2 142.36 68.92L142.36 43.96L134.28 43.96Q130.44 43.96 128.68 44.92Q126.92 45.8 126.92 49.08Z" />
	<path id="2 " fill="#ffffff" aria-label="2"  d="M167.07 70.43L166.01 64.32Q171.26 62.76 176.3 62.76Q178.68 62.76 180.6 63.05Q182.57 63.29 183.97 64.15Q185.36 64.97 186.1 66.57Q186.88 68.17 186.88 70.88Q186.88 72.89 186.39 74.32Q185.89 75.72 184.58 76.86Q183.27 78.01 180.93 79.04Q178.6 80.06 174.91 81.29L174.91 82.44L186.47 82.44L186.47 89L165.44 89L165.44 83.88Q165.44 82.73 165.56 81.78Q165.72 80.8 166.09 79.94Q166.5 79.08 167.16 78.3Q167.85 77.48 168.88 76.62Q169.45 76.13 170.19 75.67Q170.97 75.22 171.83 74.81Q172.73 74.36 173.63 73.95Q174.58 73.54 175.4 73.17Q176.22 72.81 176.87 72.52Q177.53 72.19 178.06 71.94L178.06 69.73Q177.12 69.65 176.26 69.61Q175.44 69.53 174.66 69.53Q170.81 69.53 167.07 70.43Z" />
</svg>